<?xml version="1.0" encoding="UTF-8" standalone="no"?>
<!-- Created with Inkscape (http://www.inkscape.org/) -->

<svg
   width="200mm"
   height="120mm"
   viewBox="0 0 200 120"
   version="1.1"
   id="svg1"
   xml:space="preserve"
   inkscape:export-filename="bad people logo.svg"
   inkscape:export-xdpi="96"
   inkscape:export-ydpi="96"
   xmlns:inkscape="http://www.inkscape.org/namespaces/inkscape"
   xmlns:sodipodi="http://sodipodi.sourceforge.net/DTD/sodipodi-0.dtd"
   xmlns="http://www.w3.org/2000/svg"
   xmlns:svg="http://www.w3.org/2000/svg"><sodipodi:namedview
     id="namedview1"
     pagecolor="#ffffff"
     bordercolor="#000000"
     borderopacity="0.25"
     inkscape:showpageshadow="2"
     inkscape:pageopacity="0.0"
     inkscape:pagecheckerboard="0"
     inkscape:deskcolor="#d1d1d1"
     inkscape:document-units="mm"><inkscape:page
       x="0"
       y="0"
       width="200"
       height="120"
       id="page2"
       margin="0"
       bleed="0" /></sodipodi:namedview><defs
     id="defs1" /><g
     inkscape:label="Layer 1"
     inkscape:groupmode="layer"
     id="layer1"><g
       id="g4"
       transform="matrix(1.6090445,0,0,1.6090445,-63.058421,-44.050749)"><path
         d="m 71.571842,44.958896 c 1.724806,-2.114278 2.837584,-4.673668 2.837584,-7.455613 0,-6.231556 -5.285695,-10.12628 -13.464614,-10.12628 H 39.190002 V 66.324234 H 62.55834 c 7.455613,0 14.132281,-4.618029 14.132281,-12.463114 0,-3.727806 -1.780445,-6.843585 -5.118779,-8.902224 z m -11.62853,-7.455613 c 1.390973,0 2.448112,0.556389 2.448112,2.55939 0,1.279695 -0.723306,2.281195 -1.836084,2.281195 h -8.345835 v -4.840585 z m 1.335334,18.24956 h -9.069141 v -5.285696 h 8.957863 c 1.891723,0 2.615028,1.279695 2.615028,2.55939 0,1.724806 -0.945861,2.726306 -2.50375,2.726306 z m 47.404364,10.571391 h 14.02101 L 105.40032,27.377003 H 92.937206 L 75.633508,66.324234 h 13.965364 l 1.780445,-4.506751 h 15.523253 z m -13.242053,-14.855586 2.781945,-7.066141 0.945861,-2.726306 0.945857,2.726306 2.78195,7.066141 z M 141.73254,27.377003 h -18.58339 v 38.947231 h 19.41797 c 13.01951,0 20.92023,-7.845085 20.92023,-19.640532 0,-12.073641 -8.23456,-19.306699 -21.75481,-19.306699 z m -0.55639,11.016503 c 5.23006,0 8.51275,2.948862 8.51275,8.679668 0,5.953363 -3.50525,8.12328 -7.67817,8.12328 h -5.17441 V 38.393506 Z"
         id="text1"
         style="font-size:55.6389px;font-family:'FONTSPRING DEMO - Modica Ultra';-inkscape-font-specification:'FONTSPRING DEMO - Modica Ultra, Normal';fill:#000000;fill-opacity:1;stroke-width:12.6174;stroke-linecap:square;stroke-dashoffset:6.57638"
         aria-label="BAD" /><path
         d="M 50.695811,70.924767 H 39.190249 v 21.419929 h 7.527575 v -5.538582 h 4.069787 c 5.93638,0 8.261972,-4.681784 8.261972,-8.078373 0,-3.488389 -2.356192,-7.802974 -8.353772,-7.802974 z m -1.254596,10.128566 h -2.723391 v -4.069786 h 2.87639 c 1.162797,0 1.866594,0.458998 1.866594,1.805394 0,1.101596 -0.428398,2.264392 -2.019593,2.264392 z M 67.80118,76.861147 h 10.954764 v -5.93638 h -18.35994 v 21.419929 h 18.35994 v -5.99758 H 67.80118 V 84.388722 H 77.807347 V 78.758341 H 67.80118 Z m 24.418723,-6.303579 c -7.037977,0 -12.27056,4.559385 -12.27056,11.077163 0,6.517779 5.232583,11.077164 12.27056,11.077164 7.007377,0 12.239957,-4.559385 12.239957,-11.077164 0,-6.517778 -5.23258,-11.077163 -12.239957,-11.077163 z m 0,15.789548 c -2.815191,0 -4.651185,-1.774794 -4.651185,-4.712385 0,-2.93759 1.835994,-4.773584 4.651185,-4.773584 2.753991,0 4.651185,1.835994 4.651185,4.773584 0,2.937591 -1.897194,4.712385 -4.651185,4.712385 z M 117.40361,70.924767 h -11.50557 v 21.419929 h 7.52758 v -5.538582 h 4.06978 c 5.93639,0 8.26198,-4.681784 8.26198,-8.078373 0,-3.488389 -2.35619,-7.802974 -8.35377,-7.802974 z m -1.2546,10.128566 h -2.72339 v -4.069786 h 2.87639 c 1.16279,0 1.86659,0.458998 1.86659,1.805394 0,1.101596 -0.4284,2.264392 -2.01959,2.264392 z m 27.75413,5.171383 h -9.27177 V 70.924767 h -7.52758 v 21.419929 h 16.79935 z m 8.62919,-9.363569 h 10.95476 v -5.93638 h -18.35994 v 21.419929 h 18.35994 v -5.99758 h -10.95476 v -1.958394 h 10.00617 v -5.630381 h -10.00617 z"
         id="text2"
         style="font-size:30.5999px;font-family:'FONTSPRING DEMO - Modica Ultra';-inkscape-font-specification:'FONTSPRING DEMO - Modica Ultra, Normal';fill:#000000;fill-opacity:1;stroke-width:6.93924;stroke-linecap:square;stroke-dashoffset:6.57638"
         aria-label="PEOPLE" /><path
         id="rect2"
         style="fill:#d12627;stroke-width:1.7645;stroke-linecap:square;stroke-dashoffset:6.57638"
         d="M 39.190166,95.357704 H 163.48716 v 4.226391 H 39.190166 Z" /></g></g></svg>
